<?xml version="1.0" encoding="UTF-8" ?>
<!DOCTYPE svg PUBLIC "-//W3C//DTD SVG 1.1//EN" "http://www.w3.org/Graphics/SVG/1.1/DTD/svg11.dtd">
<svg width="648pt" height="249pt" viewBox="0 0 648 249" version="1.1" xmlns="http://www.w3.org/2000/svg">
<g id="#ffffffff">
</g>
<g id="#32343cff">
<path fill="#32343c" opacity="1.00" d=" M 120.53 0.00 L 125.17 0.00 C 137.36 2.54 146.83 12.00 152.61 22.63 C 152.24 22.62 151.49 22.61 151.12 22.60 C 146.26 19.78 141.18 17.26 135.65 16.09 C 126.71 13.72 116.70 16.60 110.41 23.38 C 99.54 33.67 94.90 48.46 91.80 62.68 C 90.11 68.66 90.10 74.92 89.60 81.07 C 88.81 91.70 88.64 102.36 88.88 113.02 C 88.94 129.69 88.87 146.36 88.65 163.03 C 88.62 175.08 86.96 187.06 84.57 198.84 C 80.69 217.01 70.35 234.66 53.74 243.83 C 45.87 247.58 36.70 250.27 28.03 247.92 C 17.56 244.30 9.54 235.80 4.27 226.29 C 6.05 226.05 7.50 227.22 8.98 228.00 C 12.79 230.24 16.98 231.76 21.28 232.76 C 29.96 234.98 39.72 232.42 45.97 225.93 C 57.70 215.08 62.32 199.15 65.52 184.01 C 68.01 171.50 67.60 158.68 68.02 145.99 C 67.61 130.99 67.85 115.98 67.79 100.98 C 67.70 83.20 68.73 65.29 72.76 47.94 C 76.49 32.38 84.92 17.52 98.14 8.14 C 104.61 3.31 112.58 0.88 120.53 0.00 Z" />
<path fill="#32343c" opacity="1.00" d=" M 354.00 94.00 C 360.85 94.02 367.69 93.92 374.53 94.06 C 374.44 143.45 374.57 192.85 374.47 242.25 C 367.65 242.23 360.83 242.25 354.01 242.24 C 354.00 192.83 354.01 143.42 354.00 94.00 Z" />
<path fill="#32343c" opacity="1.00" d=" M 125.16 94.73 C 125.57 94.72 126.38 94.70 126.78 94.69 C 132.78 94.71 138.79 94.70 144.79 94.71 C 144.79 114.03 144.81 133.35 144.78 152.67 C 150.68 148.07 157.46 144.24 164.95 143.13 C 180.49 139.91 197.38 146.39 207.17 158.80 C 214.61 167.71 216.98 179.66 216.99 190.99 C 216.93 208.05 217.15 225.11 216.88 242.17 C 210.43 241.63 203.97 242.34 197.53 241.81 C 197.51 224.88 197.55 207.94 197.52 191.01 C 197.55 185.40 196.86 179.69 194.41 174.58 C 190.18 166.47 181.25 160.81 172.00 161.27 C 161.31 160.93 151.34 166.93 144.78 175.06 C 144.77 197.42 144.88 219.77 144.72 242.12 C 138.21 241.82 131.68 241.85 125.16 241.86 C 125.15 193.55 125.16 145.25 125.15 96.94 C 125.15 96.39 125.16 95.29 125.16 94.73 Z" />
<path fill="#32343c" opacity="1.00" d=" M 414.52 117.49 C 420.98 117.48 427.43 117.47 433.89 117.49 C 433.89 126.42 433.88 135.34 433.89 144.27 C 444.14 144.30 454.39 144.26 464.64 144.28 C 464.66 150.18 464.59 156.07 464.68 161.97 C 454.42 162.24 444.15 161.99 433.89 162.10 C 433.90 177.71 433.85 193.33 433.91 208.94 C 434.16 213.58 434.73 219.16 438.95 221.98 C 445.29 226.33 453.49 225.74 460.62 224.01 C 462.22 229.93 463.38 235.96 464.58 241.97 C 457.05 244.43 448.90 244.61 441.12 243.38 C 431.07 241.50 421.68 234.89 417.69 225.31 C 415.47 219.85 414.49 213.93 414.55 208.04 C 414.48 192.73 414.53 177.42 414.52 162.10 C 406.31 161.93 398.08 162.36 389.88 161.87 C 390.02 156.01 389.70 150.13 390.07 144.27 C 398.21 144.28 406.35 144.27 414.50 144.28 C 414.54 135.35 414.50 126.42 414.52 117.49 Z" />
<path fill="#32343c" opacity="1.00" d=" M 253.17 155.11 C 268.61 139.37 296.03 137.95 313.01 152.01 C 326.37 162.76 332.49 180.71 330.86 197.51 C 306.30 197.47 281.75 197.51 257.19 197.49 C 258.00 206.91 262.83 215.97 270.74 221.30 C 277.68 226.25 286.69 227.62 294.98 226.07 C 303.21 224.83 310.25 219.66 315.56 213.46 C 320.01 217.41 324.13 221.71 328.46 225.79 C 314.26 243.96 287.01 248.88 266.47 239.45 C 251.41 232.58 240.74 217.37 238.95 200.98 C 236.73 184.66 241.14 166.81 253.17 155.11 M 279.57 160.39 C 269.50 162.67 261.51 170.92 258.79 180.77 C 276.18 180.78 293.57 180.80 310.96 180.76 C 307.89 167.23 293.44 156.59 279.57 160.39 Z" />
<path fill="#32343c" opacity="1.00" d=" M 494.45 152.43 C 509.81 139.60 534.00 138.82 550.00 150.94 C 564.29 161.50 570.80 180.14 569.32 197.48 C 544.76 197.56 520.20 197.38 495.64 197.57 C 496.33 208.60 503.19 219.08 513.28 223.73 C 520.54 227.28 529.13 227.39 536.83 225.29 C 543.70 223.30 549.34 218.64 554.02 213.38 C 558.26 217.54 562.61 221.61 566.77 225.86 C 550.17 246.86 516.17 250.24 495.39 233.62 C 486.64 226.75 480.60 216.74 478.08 205.94 C 476.44 198.38 476.60 190.54 477.50 182.88 C 479.49 171.23 485.17 159.95 494.45 152.43 M 518.20 160.32 C 508.06 162.56 499.81 170.81 497.20 180.81 C 514.56 180.73 531.92 180.82 549.29 180.77 C 546.25 167.35 531.99 156.72 518.20 160.32 Z" />
<path fill="#32343c" opacity="1.00" d=" M 611.77 155.17 C 620.16 144.51 635.01 140.43 648.00 143.11 L 648.00 144.23 C 646.92 150.05 646.70 155.98 645.71 161.82 C 643.47 161.55 641.24 161.28 638.99 161.27 C 629.89 160.82 621.46 166.06 615.71 172.76 C 614.30 174.62 612.20 176.45 612.46 179.01 C 612.48 199.96 612.48 220.91 612.46 241.87 C 605.90 241.86 599.34 241.87 592.79 241.86 C 592.78 209.34 592.77 176.81 592.79 144.28 C 599.12 144.27 605.45 144.28 611.78 144.28 C 611.78 147.91 611.80 151.54 611.77 155.17 Z" />
</g>
<g id="#eac741ff">
<path fill="#eac741" opacity="1.00" d=" M 135.65 16.09 C 141.18 17.26 146.26 19.78 151.12 22.60 C 151.49 22.61 152.24 22.62 152.61 22.63 C 155.67 27.87 156.85 34.08 156.64 40.09 C 155.52 55.49 147.27 69.17 138.26 81.27 C 134.65 85.91 131.11 90.69 126.78 94.69 C 126.38 94.70 125.57 94.72 125.16 94.73 C 125.16 95.29 125.15 96.39 125.15 96.94 C 115.76 106.81 105.92 116.25 95.51 125.05 C 96.38 116.72 96.30 108.33 97.15 99.99 C 97.33 97.91 99.85 97.43 101.21 96.25 C 116.96 85.68 130.57 70.61 136.10 52.17 C 139.75 40.43 138.89 27.80 135.65 16.09 Z" />
<path fill="#eac741" opacity="1.00" d=" M 16.08 170.98 C 28.92 153.25 44.80 137.97 61.36 123.77 C 60.77 132.45 60.07 141.13 59.73 149.83 C 40.46 161.87 23.26 180.22 19.22 203.28 C 17.18 213.10 18.65 223.21 21.28 232.76 C 16.98 231.76 12.79 230.24 8.98 228.00 C 7.50 227.22 6.05 226.05 4.27 226.29 C 0.44 219.98 -0.31 212.26 0.63 205.06 C 2.36 192.49 8.92 181.22 16.08 170.98 Z" />
</g>
</svg>
