<?xml version="1.0" encoding="utf-8"?>
<!-- Generator: Adobe Illustrator 24.3.0, SVG Export Plug-In . SVG Version: 6.00 Build 0)  -->
<svg version="1.1" id="Livello_1" xmlns="http://www.w3.org/2000/svg" xmlns:xlink="http://www.w3.org/1999/xlink" x="0px" y="0px"
	 viewBox="0 0 648 249" style="enable-background:new 0 0 648 249;" xml:space="preserve">
<style type="text/css">
	.st0{fill:#FFFFFF;}
	.st1{fill:#EAC741;}
</style>
<g id="_x23_ffffffff">
</g>
<g id="_x23_32343cff">
	<path class="st0" d="M120.5,0h4.6c12.2,2.5,21.7,12,27.4,22.6c-0.4,0-1.1,0-1.5,0c-4.9-2.8-9.9-5.3-15.5-6.5
		c-8.9-2.4-18.9,0.5-25.2,7.3C99.5,33.7,94.9,48.5,91.8,62.7c-1.7,6-1.7,12.2-2.2,18.4c-0.8,10.6-1,21.3-0.7,31.9
		c0.1,16.7,0,33.3-0.2,50c0,12.1-1.7,24-4.1,35.8c-3.9,18.2-14.2,35.8-30.8,45c-7.9,3.8-17,6.4-25.7,4.1
		c-10.5-3.6-18.5-12.1-23.8-21.6c1.8-0.2,3.2,0.9,4.7,1.7c3.8,2.2,8,3.8,12.3,4.8c8.7,2.2,18.4-0.3,24.7-6.8
		c11.7-10.8,16.3-26.8,19.5-41.9c2.5-12.5,2.1-25.3,2.5-38c-0.4-15-0.2-30-0.2-45c-0.1-17.8,0.9-35.7,5-53
		c3.7-15.6,12.2-30.4,25.4-39.8C104.6,3.3,112.6,0.9,120.5,0z"/>
	<path class="st0" d="M354,94c6.9,0,13.7-0.1,20.5,0.1c-0.1,49.4,0,98.8-0.1,148.2c-6.8,0-13.6,0-20.5,0C354,192.8,354,143.4,354,94
		z"/>
	<path class="st0" d="M125.2,94.7c0.4,0,1.2,0,1.6,0c6,0,12,0,18,0c0,19.3,0,38.6,0,58c5.9-4.6,12.7-8.4,20.2-9.5
		c15.5-3.2,32.4,3.3,42.2,15.7c7.4,8.9,9.8,20.9,9.8,32.2c-0.1,17.1,0.2,34.1-0.1,51.2c-6.5-0.5-12.9,0.2-19.4-0.4
		c0-16.9,0-33.9,0-50.8c0-5.6-0.7-11.3-3.1-16.4c-4.2-8.1-13.2-13.8-22.4-13.3c-10.7-0.3-20.7,5.7-27.2,13.8
		c0,22.4,0.1,44.7-0.1,67.1c-6.5-0.3-13-0.3-19.6-0.3c0-48.3,0-96.6,0-144.9C125.2,96.4,125.2,95.3,125.2,94.7z"/>
	<path class="st0" d="M414.5,117.5c6.5,0,12.9,0,19.4,0c0,8.9,0,17.8,0,26.8c10.3,0,20.5,0,30.8,0c0,5.9-0.1,11.8,0,17.7
		c-10.3,0.3-20.5,0-30.8,0.1c0,15.6,0,31.2,0,46.8c0.3,4.6,0.8,10.2,5,13c6.3,4.4,14.5,3.8,21.7,2c1.6,5.9,2.8,12,4,18
		c-7.5,2.5-15.7,2.6-23.5,1.4c-10-1.9-19.4-8.5-23.4-18.1c-2.2-5.5-3.2-11.4-3.1-17.3c-0.1-15.3,0-30.6,0-45.9
		c-8.2-0.2-16.4,0.3-24.6-0.2c0.1-5.9-0.2-11.7,0.2-17.6c8.1,0,16.3,0,24.4,0C414.5,135.4,414.5,126.4,414.5,117.5z"/>
	<path class="st0" d="M253.2,155.1c15.4-15.7,42.9-17.2,59.8-3.1c13.4,10.8,19.5,28.7,17.8,45.5c-24.6,0-49.1,0-73.7,0
		c0.8,9.4,5.6,18.5,13.5,23.8c6.9,4.9,16,6.3,24.2,4.8c8.2-1.2,15.3-6.4,20.6-12.6c4.5,3.9,8.6,8.3,12.9,12.3
		c-14.2,18.2-41.4,23.1-62,13.7c-15.1-6.9-25.7-22.1-27.5-38.5C236.7,184.7,241.1,166.8,253.2,155.1 M279.6,160.4
		c-10.1,2.3-18.1,10.5-20.8,20.4c17.4,0,34.8,0,52.2,0C307.9,167.2,293.4,156.6,279.6,160.4z"/>
	<path class="st0" d="M494.5,152.4c15.4-12.8,39.5-13.6,55.5-1.5c14.3,10.6,20.8,29.2,19.3,46.5c-24.6,0.1-49.1-0.1-73.7,0.1
		c0.7,11,7.5,21.5,17.6,26.2c7.3,3.6,15.8,3.7,23.5,1.6c6.9-2,12.5-6.6,17.2-11.9c4.2,4.2,8.6,8.2,12.8,12.5
		c-16.6,21-50.6,24.4-71.4,7.8c-8.8-6.9-14.8-16.9-17.3-27.7c-1.6-7.6-1.5-15.4-0.6-23.1C479.5,171.2,485.2,159.9,494.5,152.4
		 M518.2,160.3c-10.1,2.2-18.4,10.5-21,20.5c17.4-0.1,34.7,0,52.1,0C546.3,167.4,532,156.7,518.2,160.3z"/>
	<path class="st0" d="M611.8,155.2c8.4-10.7,23.2-14.7,36.2-12.1v1.1c-1.1,5.8-1.3,11.8-2.3,17.6c-2.2-0.3-4.5-0.5-6.7-0.6
		c-9.1-0.4-17.5,4.8-23.3,11.5c-1.4,1.9-3.5,3.7-3.3,6.3c0,21,0,41.9,0,62.9c-6.6,0-13.1,0-19.7,0c0-32.5,0-65.1,0-97.6
		c6.3,0,12.7,0,19,0C611.8,147.9,611.8,151.5,611.8,155.2z"/>
</g>
<g id="_x23_eac741ff">
	<path class="st1" d="M135.6,16.1c5.5,1.2,10.6,3.7,15.5,6.5c0.4,0,1.1,0,1.5,0c3.1,5.2,4.2,11.5,4,17.5
		c-1.1,15.4-9.4,29.1-18.4,41.2c-3.6,4.6-7.1,9.4-11.5,13.4c-0.4,0-1.2,0-1.6,0c0,0.6,0,1.7,0,2.2c-9.4,9.9-19.2,19.3-29.6,28.1
		c0.9-8.3,0.8-16.7,1.6-25.1c0.2-2.1,2.7-2.6,4.1-3.7c15.8-10.6,29.4-25.6,34.9-44.1C139.8,40.4,138.9,27.8,135.6,16.1z"/>
	<path class="st1" d="M16.1,171c12.8-17.7,28.7-33,45.3-47.2c-0.6,8.7-1.3,17.4-1.6,26.1c-19.3,12-36.5,30.4-40.5,53.4
		c-2,9.8-0.6,19.9,2.1,29.5c-4.3-1-8.5-2.5-12.3-4.8c-1.5-0.8-2.9-1.9-4.7-1.7c-3.8-6.3-4.6-14-3.6-21.2
		C2.4,192.5,8.9,181.2,16.1,171z"/>
</g>
</svg>
